<?xml version="1.0" standalone="no"?>
<!DOCTYPE svg PUBLIC "-//W3C//DTD SVG 20010904//EN"
 "http://www.w3.org/TR/2001/REC-SVG-20010904/DTD/svg10.dtd">
<svg version="1.0" xmlns="http://www.w3.org/2000/svg"
 width="355.000000pt" height="355.000000pt" viewBox="0 0 355.000000 355.000000"
 preserveAspectRatio="xMidYMid meet">
<metadata>
Created by potrace 1.14, written by Peter Selinger 2001-2017
</metadata>
<g transform="translate(0.000000,355.000000) scale(0.100000,-0.100000)"
fill="#000000" stroke="none">
<path d="M1677 3444 c-1 -1 -37 -4 -79 -8 -121 -10 -301 -51 -428 -99 -228
-87 -428 -215 -601 -387 -117 -116 -177 -194 -276 -356 -97 -159 -191 -448
-209 -644 -40 -424 76 -831 333 -1173 48 -63 224 -243 278 -284 126 -96 228
-160 340 -212 76 -36 212 -88 248 -95 12 -3 58 -14 102 -25 406 -101 896 -27
1253 191 34 21 64 38 67 38 3 0 44 30 92 67 108 83 242 215 314 308 29 39 56
72 59 75 13 11 97 160 131 230 69 144 132 344 145 464 3 28 9 74 13 101 17
122 -1 368 -39 520 -11 44 -22 88 -25 98 -17 72 -121 304 -162 364 -11 15 -22
35 -25 43 -13 36 -149 202 -232 285 -277 276 -628 444 -1021 491 -52 6 -273
12 -278 8z m247 -278 c93 -12 110 -15 176 -31 36 -9 72 -17 80 -19 52 -13 194
-72 268 -111 299 -159 540 -430 656 -738 191 -507 72 -1064 -309 -1451 -45
-45 -108 -102 -140 -126 -33 -25 -62 -47 -65 -51 -10 -11 -128 -79 -195 -111
-113 -55 -239 -95 -381 -123 -156 -30 -386 -23 -559 16 -709 162 -1178 806
-1101 1511 4 37 8 70 7 73 0 2 5 19 10 37 5 18 12 47 15 63 9 55 66 209 105
287 39 78 125 210 176 270 238 282 592 469 953 504 36 4 66 7 67 8 5 4 187 -3
237 -8z"/>
<path d="M719 2083 c-6 -16 -12 -35 -14 -45 -2 -9 -11 -30 -19 -47 -9 -17 -17
-34 -17 -38 -2 -9 0 -6 -35 -98 -14 -38 -27 -77 -29 -85 -2 -8 -4 -16 -5 -17
-2 -2 -3 -6 -5 -10 -1 -5 -7 -21 -13 -36 -7 -16 -12 -30 -12 -33 0 -2 48 -4
107 -4 58 0 104 3 100 6 -3 3 1 23 8 45 8 21 12 39 10 39 -2 0 2 18 10 40 8
22 12 40 10 40 -3 0 0 11 5 26 6 14 12 39 15 57 4 18 12 55 20 82 8 28 16 62
19 78 l5 27 -75 0 c-72 0 -75 -1 -85 -27z"/>
<path d="M1071 2087 c-7 -13 -13 -29 -15 -37 -2 -8 -9 -28 -15 -45 -7 -16 -14
-34 -15 -40 -4 -13 -15 -45 -57 -155 -8 -19 -14 -38 -15 -42 -1 -5 -3 -10 -4
-13 -1 -3 -3 -8 -5 -12 -1 -5 -7 -21 -13 -36 -7 -16 -12 -30 -12 -33 0 -10
205 1 205 11 1 6 4 19 8 30 3 11 8 31 11 45 4 22 11 50 20 85 1 6 5 19 9 30 3
11 8 31 11 45 9 47 28 122 42 173 5 15 -3 17 -69 17 -67 0 -75 -2 -86 -23z"/>
<path d="M2429 2108 c0 -2 -2 -10 -4 -18 -2 -8 -6 -25 -9 -37 -3 -13 -8 -31
-10 -40 -2 -10 -20 -79 -39 -153 -19 -74 -38 -147 -41 -162 l-6 -28 75 0 c79
0 84 3 99 65 2 6 9 24 15 40 7 17 14 35 15 40 3 10 9 26 29 80 7 17 12 33 13
38 1 4 3 9 4 12 1 3 3 8 5 13 1 4 7 21 14 37 7 17 14 35 15 40 2 6 8 23 14 38
7 16 12 30 12 33 0 4 -199 6 -201 2z"/>
<path d="M2775 2098 c-4 -14 -25 -92 -31 -120 -2 -10 -6 -28 -10 -40 -3 -13
-7 -33 -10 -45 -2 -12 -9 -34 -14 -48 -5 -14 -7 -25 -5 -25 2 0 0 -11 -5 -25
-5 -14 -12 -36 -14 -48 -2 -12 -7 -34 -11 -49 l-7 -28 76 0 c74 0 77 1 87 28
6 15 12 32 13 37 1 6 4 15 7 20 5 8 30 77 34 95 1 3 7 19 14 35 7 17 14 37 16
45 2 8 4 16 5 18 2 1 3 5 5 10 3 11 15 43 27 72 6 14 14 37 18 53 l9 27 -100
0 c-71 0 -101 -4 -104 -12z"/>
<path d="M1695 2023 c3 -32 10 -94 15 -138 6 -44 10 -83 10 -87 0 -4 -10 -4
-22 1 -24 10 -60 23 -68 26 -3 1 -16 6 -30 12 -27 12 -62 26 -70 27 -3 1 -11
5 -17 9 -35 22 -50 16 -63 -26 -7 -23 -12 -42 -11 -42 1 0 -5 -16 -13 -36
l-15 -37 43 -6 c42 -7 68 -11 113 -20 11 -3 42 -8 67 -11 25 -4 46 -9 46 -11
0 -2 -8 -12 -17 -22 -10 -10 -34 -37 -53 -61 -19 -23 -44 -53 -55 -65 -58 -67
-63 -74 -52 -85 6 -6 17 -11 24 -11 8 0 16 -6 19 -14 3 -8 19 -20 35 -26 16
-7 29 -16 29 -21 0 -5 7 -9 15 -9 14 0 41 38 37 53 -1 4 1 7 6 7 4 0 13 15 21
33 8 17 17 34 20 37 7 6 28 41 52 88 l17 33 74 -129 73 -129 40 28 c22 16 54
38 71 51 l31 22 -21 21 c-12 12 -37 41 -56 65 -19 24 -40 48 -45 54 -6 6 -23
27 -38 47 l-27 36 133 23 134 23 -24 66 c-13 36 -26 72 -28 78 -3 10 -18 8
-57 -8 -29 -12 -86 -34 -127 -50 l-73 -28 6 67 c4 37 9 83 12 102 2 19 6 54 9
78 l5 42 -90 0 -90 0 5 -57z"/>
</g>
</svg>
